<mxfile host="app.diagrams.net" modified="2023-09-30T18:33:49.317Z" agent="Mozilla/5.0 (Windows NT 10.0; Win64; x64) AppleWebKit/537.36 (KHTML, like Gecko) Chrome/117.0.0.0 Safari/537.36" etag="agSJR8t5r7PQqXRsDDW9" version="22.0.0" type="github">
  <diagram name="Page-1" id="D-1xYFfyUF5brrtXwwSW">
    <mxGraphModel dx="1249" dy="691" grid="1" gridSize="10" guides="1" tooltips="1" connect="1" arrows="1" fold="1" page="1" pageScale="1" pageWidth="850" pageHeight="1100" math="0" shadow="0">
      <root>
        <mxCell id="0" />
        <mxCell id="1" parent="0" />
        <mxCell id="EP6wdVNV-JdF1x0DyxK7-22" style="edgeStyle=orthogonalEdgeStyle;rounded=0;orthogonalLoop=1;jettySize=auto;html=1;exitX=0.5;exitY=1;exitDx=0;exitDy=0;entryX=0.5;entryY=0;entryDx=0;entryDy=0;" edge="1" parent="1" source="EP6wdVNV-JdF1x0DyxK7-1" target="EP6wdVNV-JdF1x0DyxK7-2">
          <mxGeometry relative="1" as="geometry" />
        </mxCell>
        <mxCell id="EP6wdVNV-JdF1x0DyxK7-23" style="edgeStyle=orthogonalEdgeStyle;rounded=0;orthogonalLoop=1;jettySize=auto;html=1;exitX=0.5;exitY=1;exitDx=0;exitDy=0;entryX=0.5;entryY=0;entryDx=0;entryDy=0;" edge="1" parent="1" source="EP6wdVNV-JdF1x0DyxK7-1" target="EP6wdVNV-JdF1x0DyxK7-5">
          <mxGeometry relative="1" as="geometry" />
        </mxCell>
        <mxCell id="EP6wdVNV-JdF1x0DyxK7-24" style="edgeStyle=orthogonalEdgeStyle;rounded=0;orthogonalLoop=1;jettySize=auto;html=1;exitX=0.5;exitY=1;exitDx=0;exitDy=0;entryX=0.5;entryY=0;entryDx=0;entryDy=0;" edge="1" parent="1" source="EP6wdVNV-JdF1x0DyxK7-1" target="EP6wdVNV-JdF1x0DyxK7-3">
          <mxGeometry relative="1" as="geometry" />
        </mxCell>
        <mxCell id="EP6wdVNV-JdF1x0DyxK7-25" style="edgeStyle=orthogonalEdgeStyle;rounded=0;orthogonalLoop=1;jettySize=auto;html=1;exitX=0.5;exitY=1;exitDx=0;exitDy=0;entryX=0.5;entryY=0;entryDx=0;entryDy=0;" edge="1" parent="1" source="EP6wdVNV-JdF1x0DyxK7-1" target="EP6wdVNV-JdF1x0DyxK7-4">
          <mxGeometry relative="1" as="geometry" />
        </mxCell>
        <mxCell id="EP6wdVNV-JdF1x0DyxK7-26" style="edgeStyle=orthogonalEdgeStyle;rounded=0;orthogonalLoop=1;jettySize=auto;html=1;exitX=0.5;exitY=1;exitDx=0;exitDy=0;entryX=0.5;entryY=0;entryDx=0;entryDy=0;" edge="1" parent="1" source="EP6wdVNV-JdF1x0DyxK7-1" target="EP6wdVNV-JdF1x0DyxK7-6">
          <mxGeometry relative="1" as="geometry" />
        </mxCell>
        <mxCell id="EP6wdVNV-JdF1x0DyxK7-49" style="edgeStyle=orthogonalEdgeStyle;rounded=0;orthogonalLoop=1;jettySize=auto;html=1;exitX=0.5;exitY=1;exitDx=0;exitDy=0;" edge="1" parent="1" source="EP6wdVNV-JdF1x0DyxK7-1" target="EP6wdVNV-JdF1x0DyxK7-43">
          <mxGeometry relative="1" as="geometry" />
        </mxCell>
        <mxCell id="EP6wdVNV-JdF1x0DyxK7-1" value="Correspondência Eletrônica&lt;span id=&quot;docs-internal-guid-e67e9642-7fff-54b9-82e5-9a89ee6bfa45&quot;&gt;&lt;/span&gt;" style="rounded=0;whiteSpace=wrap;html=1;" vertex="1" parent="1">
          <mxGeometry x="450" y="220" width="120" height="60" as="geometry" />
        </mxCell>
        <mxCell id="EP6wdVNV-JdF1x0DyxK7-29" style="edgeStyle=orthogonalEdgeStyle;rounded=0;orthogonalLoop=1;jettySize=auto;html=1;exitX=0.5;exitY=1;exitDx=0;exitDy=0;entryX=0.5;entryY=0;entryDx=0;entryDy=0;" edge="1" parent="1" source="EP6wdVNV-JdF1x0DyxK7-2" target="EP6wdVNV-JdF1x0DyxK7-7">
          <mxGeometry relative="1" as="geometry" />
        </mxCell>
        <mxCell id="EP6wdVNV-JdF1x0DyxK7-2" value="Levantamento de Documentos e Requisitos" style="rounded=0;whiteSpace=wrap;html=1;" vertex="1" parent="1">
          <mxGeometry x="365" y="380" width="120" height="60" as="geometry" />
        </mxCell>
        <mxCell id="EP6wdVNV-JdF1x0DyxK7-28" style="edgeStyle=orthogonalEdgeStyle;rounded=0;orthogonalLoop=1;jettySize=auto;html=1;exitX=0.5;exitY=1;exitDx=0;exitDy=0;entryX=0.5;entryY=0;entryDx=0;entryDy=0;" edge="1" parent="1" source="EP6wdVNV-JdF1x0DyxK7-3" target="EP6wdVNV-JdF1x0DyxK7-8">
          <mxGeometry relative="1" as="geometry" />
        </mxCell>
        <mxCell id="EP6wdVNV-JdF1x0DyxK7-3" value="Estudo de Viabilidade" style="rounded=0;whiteSpace=wrap;html=1;" vertex="1" parent="1">
          <mxGeometry x="205" y="380" width="120" height="60" as="geometry" />
        </mxCell>
        <mxCell id="EP6wdVNV-JdF1x0DyxK7-30" style="edgeStyle=orthogonalEdgeStyle;rounded=0;orthogonalLoop=1;jettySize=auto;html=1;exitX=0.5;exitY=1;exitDx=0;exitDy=0;entryX=0.5;entryY=0;entryDx=0;entryDy=0;" edge="1" parent="1" source="EP6wdVNV-JdF1x0DyxK7-4" target="EP6wdVNV-JdF1x0DyxK7-9">
          <mxGeometry relative="1" as="geometry" />
        </mxCell>
        <mxCell id="EP6wdVNV-JdF1x0DyxK7-4" value="Arquitetura de TI" style="rounded=0;whiteSpace=wrap;html=1;" vertex="1" parent="1">
          <mxGeometry x="525" y="380" width="120" height="60" as="geometry" />
        </mxCell>
        <mxCell id="EP6wdVNV-JdF1x0DyxK7-27" style="edgeStyle=orthogonalEdgeStyle;rounded=0;orthogonalLoop=1;jettySize=auto;html=1;exitX=0.5;exitY=1;exitDx=0;exitDy=0;entryX=0.5;entryY=0;entryDx=0;entryDy=0;" edge="1" parent="1" source="EP6wdVNV-JdF1x0DyxK7-5" target="EP6wdVNV-JdF1x0DyxK7-10">
          <mxGeometry relative="1" as="geometry" />
        </mxCell>
        <mxCell id="EP6wdVNV-JdF1x0DyxK7-5" value="Infraestrutura para Correspondência Eletrônica" style="rounded=0;whiteSpace=wrap;html=1;" vertex="1" parent="1">
          <mxGeometry x="45" y="380" width="120" height="60" as="geometry" />
        </mxCell>
        <mxCell id="EP6wdVNV-JdF1x0DyxK7-31" style="edgeStyle=orthogonalEdgeStyle;rounded=0;orthogonalLoop=1;jettySize=auto;html=1;exitX=0.5;exitY=1;exitDx=0;exitDy=0;entryX=0.5;entryY=0;entryDx=0;entryDy=0;" edge="1" parent="1" source="EP6wdVNV-JdF1x0DyxK7-6" target="EP6wdVNV-JdF1x0DyxK7-11">
          <mxGeometry relative="1" as="geometry" />
        </mxCell>
        <mxCell id="EP6wdVNV-JdF1x0DyxK7-6" value="Integração e Segurança" style="rounded=0;whiteSpace=wrap;html=1;" vertex="1" parent="1">
          <mxGeometry x="685" y="380" width="120" height="60" as="geometry" />
        </mxCell>
        <mxCell id="EP6wdVNV-JdF1x0DyxK7-34" style="edgeStyle=orthogonalEdgeStyle;rounded=0;orthogonalLoop=1;jettySize=auto;html=1;exitX=0.5;exitY=1;exitDx=0;exitDy=0;entryX=0.5;entryY=0;entryDx=0;entryDy=0;" edge="1" parent="1" source="EP6wdVNV-JdF1x0DyxK7-7" target="EP6wdVNV-JdF1x0DyxK7-12">
          <mxGeometry relative="1" as="geometry" />
        </mxCell>
        <mxCell id="EP6wdVNV-JdF1x0DyxK7-7" value="Identificação dos tipos de documentos" style="rounded=0;whiteSpace=wrap;html=1;" vertex="1" parent="1">
          <mxGeometry x="365" y="500" width="120" height="60" as="geometry" />
        </mxCell>
        <mxCell id="EP6wdVNV-JdF1x0DyxK7-33" style="edgeStyle=orthogonalEdgeStyle;rounded=0;orthogonalLoop=1;jettySize=auto;html=1;exitX=0.5;exitY=1;exitDx=0;exitDy=0;entryX=0.5;entryY=0;entryDx=0;entryDy=0;" edge="1" parent="1" source="EP6wdVNV-JdF1x0DyxK7-8" target="EP6wdVNV-JdF1x0DyxK7-13">
          <mxGeometry relative="1" as="geometry" />
        </mxCell>
        <mxCell id="EP6wdVNV-JdF1x0DyxK7-8" value="Análise de investimento" style="rounded=0;whiteSpace=wrap;html=1;" vertex="1" parent="1">
          <mxGeometry x="205" y="500" width="120" height="60" as="geometry" />
        </mxCell>
        <mxCell id="EP6wdVNV-JdF1x0DyxK7-35" style="edgeStyle=orthogonalEdgeStyle;rounded=0;orthogonalLoop=1;jettySize=auto;html=1;exitX=0.5;exitY=1;exitDx=0;exitDy=0;entryX=0.5;entryY=0;entryDx=0;entryDy=0;" edge="1" parent="1" source="EP6wdVNV-JdF1x0DyxK7-9" target="EP6wdVNV-JdF1x0DyxK7-14">
          <mxGeometry relative="1" as="geometry" />
        </mxCell>
        <mxCell id="EP6wdVNV-JdF1x0DyxK7-9" value="Avaliação da arquitetura de TI atual" style="rounded=0;whiteSpace=wrap;html=1;" vertex="1" parent="1">
          <mxGeometry x="525" y="500" width="120" height="60" as="geometry" />
        </mxCell>
        <mxCell id="EP6wdVNV-JdF1x0DyxK7-32" style="edgeStyle=orthogonalEdgeStyle;rounded=0;orthogonalLoop=1;jettySize=auto;html=1;exitX=0.5;exitY=1;exitDx=0;exitDy=0;entryX=0.5;entryY=0;entryDx=0;entryDy=0;" edge="1" parent="1" source="EP6wdVNV-JdF1x0DyxK7-10" target="EP6wdVNV-JdF1x0DyxK7-15">
          <mxGeometry relative="1" as="geometry" />
        </mxCell>
        <mxCell id="EP6wdVNV-JdF1x0DyxK7-10" value="Análise de requisitos de infraestrutura" style="rounded=0;whiteSpace=wrap;html=1;" vertex="1" parent="1">
          <mxGeometry x="45" y="500" width="120" height="60" as="geometry" />
        </mxCell>
        <mxCell id="EP6wdVNV-JdF1x0DyxK7-36" style="edgeStyle=orthogonalEdgeStyle;rounded=0;orthogonalLoop=1;jettySize=auto;html=1;exitX=0.5;exitY=1;exitDx=0;exitDy=0;entryX=0.5;entryY=0;entryDx=0;entryDy=0;" edge="1" parent="1" source="EP6wdVNV-JdF1x0DyxK7-11" target="EP6wdVNV-JdF1x0DyxK7-16">
          <mxGeometry relative="1" as="geometry" />
        </mxCell>
        <mxCell id="EP6wdVNV-JdF1x0DyxK7-11" value="Desenvolvimento de protocolos de segurança" style="rounded=0;whiteSpace=wrap;html=1;" vertex="1" parent="1">
          <mxGeometry x="685" y="500" width="120" height="60" as="geometry" />
        </mxCell>
        <mxCell id="EP6wdVNV-JdF1x0DyxK7-39" style="edgeStyle=orthogonalEdgeStyle;rounded=0;orthogonalLoop=1;jettySize=auto;html=1;exitX=0.5;exitY=1;exitDx=0;exitDy=0;entryX=0.5;entryY=0;entryDx=0;entryDy=0;" edge="1" parent="1" source="EP6wdVNV-JdF1x0DyxK7-12" target="EP6wdVNV-JdF1x0DyxK7-17">
          <mxGeometry relative="1" as="geometry" />
        </mxCell>
        <mxCell id="EP6wdVNV-JdF1x0DyxK7-12" value="Levantamento dos volumes de documentos" style="rounded=0;whiteSpace=wrap;html=1;" vertex="1" parent="1">
          <mxGeometry x="365" y="620" width="120" height="60" as="geometry" />
        </mxCell>
        <mxCell id="EP6wdVNV-JdF1x0DyxK7-38" style="edgeStyle=orthogonalEdgeStyle;rounded=0;orthogonalLoop=1;jettySize=auto;html=1;exitX=0.5;exitY=1;exitDx=0;exitDy=0;entryX=0.5;entryY=0;entryDx=0;entryDy=0;" edge="1" parent="1" source="EP6wdVNV-JdF1x0DyxK7-13" target="EP6wdVNV-JdF1x0DyxK7-18">
          <mxGeometry relative="1" as="geometry" />
        </mxCell>
        <mxCell id="EP6wdVNV-JdF1x0DyxK7-13" value="Projeção de retorno financeiro" style="rounded=0;whiteSpace=wrap;html=1;" vertex="1" parent="1">
          <mxGeometry x="205" y="620" width="120" height="60" as="geometry" />
        </mxCell>
        <mxCell id="EP6wdVNV-JdF1x0DyxK7-40" style="edgeStyle=orthogonalEdgeStyle;rounded=0;orthogonalLoop=1;jettySize=auto;html=1;exitX=0.5;exitY=1;exitDx=0;exitDy=0;entryX=0.5;entryY=0;entryDx=0;entryDy=0;" edge="1" parent="1" source="EP6wdVNV-JdF1x0DyxK7-14" target="EP6wdVNV-JdF1x0DyxK7-19">
          <mxGeometry relative="1" as="geometry" />
        </mxCell>
        <mxCell id="EP6wdVNV-JdF1x0DyxK7-14" value=" Identificação de melhorias necessárias" style="rounded=0;whiteSpace=wrap;html=1;" vertex="1" parent="1">
          <mxGeometry x="525" y="620" width="120" height="60" as="geometry" />
        </mxCell>
        <mxCell id="EP6wdVNV-JdF1x0DyxK7-37" style="edgeStyle=orthogonalEdgeStyle;rounded=0;orthogonalLoop=1;jettySize=auto;html=1;exitX=0.5;exitY=1;exitDx=0;exitDy=0;entryX=0.5;entryY=0;entryDx=0;entryDy=0;" edge="1" parent="1" source="EP6wdVNV-JdF1x0DyxK7-15" target="EP6wdVNV-JdF1x0DyxK7-20">
          <mxGeometry relative="1" as="geometry" />
        </mxCell>
        <mxCell id="EP6wdVNV-JdF1x0DyxK7-15" value="Aquisição de equipamentos necessários" style="rounded=0;whiteSpace=wrap;html=1;" vertex="1" parent="1">
          <mxGeometry x="45" y="620" width="120" height="60" as="geometry" />
        </mxCell>
        <mxCell id="EP6wdVNV-JdF1x0DyxK7-41" style="edgeStyle=orthogonalEdgeStyle;rounded=0;orthogonalLoop=1;jettySize=auto;html=1;exitX=0.5;exitY=1;exitDx=0;exitDy=0;entryX=0.5;entryY=0;entryDx=0;entryDy=0;" edge="1" parent="1" source="EP6wdVNV-JdF1x0DyxK7-16" target="EP6wdVNV-JdF1x0DyxK7-21">
          <mxGeometry relative="1" as="geometry" />
        </mxCell>
        <mxCell id="EP6wdVNV-JdF1x0DyxK7-16" value="Integração da infraestrutura com sistemas existentes" style="rounded=0;whiteSpace=wrap;html=1;" vertex="1" parent="1">
          <mxGeometry x="685" y="620" width="120" height="60" as="geometry" />
        </mxCell>
        <mxCell id="EP6wdVNV-JdF1x0DyxK7-17" value="Identificação dos requisitos legais" style="rounded=0;whiteSpace=wrap;html=1;" vertex="1" parent="1">
          <mxGeometry x="365" y="740" width="120" height="60" as="geometry" />
        </mxCell>
        <mxCell id="EP6wdVNV-JdF1x0DyxK7-18" value="Elaboração de relatório de viabilidade" style="rounded=0;whiteSpace=wrap;html=1;" vertex="1" parent="1">
          <mxGeometry x="205" y="740" width="120" height="60" as="geometry" />
        </mxCell>
        <mxCell id="EP6wdVNV-JdF1x0DyxK7-19" value="Implementação das melhorias na arquitetura de TI" style="rounded=0;whiteSpace=wrap;html=1;" vertex="1" parent="1">
          <mxGeometry x="525" y="740" width="120" height="60" as="geometry" />
        </mxCell>
        <mxCell id="EP6wdVNV-JdF1x0DyxK7-20" value="Implementação da infraestrutura" style="rounded=0;whiteSpace=wrap;html=1;" vertex="1" parent="1">
          <mxGeometry x="45" y="740" width="120" height="60" as="geometry" />
        </mxCell>
        <mxCell id="EP6wdVNV-JdF1x0DyxK7-21" value="Testes de segurança e integridade do sistema" style="rounded=0;whiteSpace=wrap;html=1;" vertex="1" parent="1">
          <mxGeometry x="685" y="740" width="120" height="60" as="geometry" />
        </mxCell>
        <mxCell id="EP6wdVNV-JdF1x0DyxK7-42" style="edgeStyle=orthogonalEdgeStyle;rounded=0;orthogonalLoop=1;jettySize=auto;html=1;exitX=0.5;exitY=1;exitDx=0;exitDy=0;entryX=0.5;entryY=0;entryDx=0;entryDy=0;" edge="1" parent="1" source="EP6wdVNV-JdF1x0DyxK7-43" target="EP6wdVNV-JdF1x0DyxK7-45">
          <mxGeometry relative="1" as="geometry" />
        </mxCell>
        <mxCell id="EP6wdVNV-JdF1x0DyxK7-43" value="Documentação e Treinamento" style="rounded=0;whiteSpace=wrap;html=1;" vertex="1" parent="1">
          <mxGeometry x="850" y="380" width="120" height="60" as="geometry" />
        </mxCell>
        <mxCell id="EP6wdVNV-JdF1x0DyxK7-44" style="edgeStyle=orthogonalEdgeStyle;rounded=0;orthogonalLoop=1;jettySize=auto;html=1;exitX=0.5;exitY=1;exitDx=0;exitDy=0;entryX=0.5;entryY=0;entryDx=0;entryDy=0;" edge="1" parent="1" source="EP6wdVNV-JdF1x0DyxK7-45" target="EP6wdVNV-JdF1x0DyxK7-47">
          <mxGeometry relative="1" as="geometry" />
        </mxCell>
        <mxCell id="EP6wdVNV-JdF1x0DyxK7-45" value="Elaboração de manuais de uso" style="rounded=0;whiteSpace=wrap;html=1;" vertex="1" parent="1">
          <mxGeometry x="850" y="500" width="120" height="60" as="geometry" />
        </mxCell>
        <mxCell id="EP6wdVNV-JdF1x0DyxK7-46" style="edgeStyle=orthogonalEdgeStyle;rounded=0;orthogonalLoop=1;jettySize=auto;html=1;exitX=0.5;exitY=1;exitDx=0;exitDy=0;entryX=0.5;entryY=0;entryDx=0;entryDy=0;" edge="1" parent="1" source="EP6wdVNV-JdF1x0DyxK7-47" target="EP6wdVNV-JdF1x0DyxK7-48">
          <mxGeometry relative="1" as="geometry" />
        </mxCell>
        <mxCell id="EP6wdVNV-JdF1x0DyxK7-47" value="Treinamento da equipe operacional" style="rounded=0;whiteSpace=wrap;html=1;" vertex="1" parent="1">
          <mxGeometry x="850" y="620" width="120" height="60" as="geometry" />
        </mxCell>
        <mxCell id="EP6wdVNV-JdF1x0DyxK7-48" value="Treinamento dos clientes sobre o uso do novo serviço" style="rounded=0;whiteSpace=wrap;html=1;" vertex="1" parent="1">
          <mxGeometry x="850" y="740" width="120" height="60" as="geometry" />
        </mxCell>
      </root>
    </mxGraphModel>
  </diagram>
</mxfile>
